<svg width="32" height="32" viewBox="0 0 32 32" fill="none" xmlns="http://www.w3.org/2000/svg">
  <rect width="32" height="32" rx="8" fill="url(#paint0_linear)" />
  <path d="M10 16C10 14.8954 10.8954 14 12 14H20C21.1046 14 22 14.8954 22 16V20C22 21.1046 21.1046 22 20 22H12C10.8954 22 10 21.1046 10 20V16Z" fill="white" />
  <path d="M10 10C10 8.89543 10.8954 8 12 8H16C17.1046 8 18 8.89543 18 10V12C18 13.1046 17.1046 14 16 14H12C10.8954 14 10 13.1046 10 12V10Z" fill="white" />
  <defs>
    <linearGradient id="paint0_linear" x1="0" y1="0" x2="32" y2="32" gradientUnits="userSpaceOnUse">
      <stop stop-color="#2B7CD3" />
      <stop offset="1" stop-color="#8B42D6" />
    </linearGradient>
  </defs>
</svg> 